<?xml version="1.0" encoding="UTF-8"?><svg id="Layer_2" xmlns="http://www.w3.org/2000/svg" viewBox="0 0 88.53 87.48"><defs><style>.cls-1{fill:none;stroke:#fff;stroke-miterlimit:10;stroke-width:4px;}</style></defs><g id="forum"><path class="cls-1" d="M53.07,2.03c7.33.93,6.79,10.41,6.35,15.85-.37,4.51-1.37,9-2.28,13.41h18.14c1.58,0,3.57.7,4.89,1.62,4.03,2.82,4.77,7.93,2.19,12.03,5.72,3.18,5.39,11.31.01,14.72,3.04,4.32,1.25,10.12-3.26,12.54,3.21,5.4-.31,12.51-6.61,13.07-7.52.67-15.98-.5-23.6,0-4.19-.32-8.35-.72-12.47-1.52-3.68-.72-7.28-1.8-10.86-2.89v-44.59c4.17-3.34,8.38-6.72,11.6-11.01,4.18-5.56,5.16-12.75,8.2-18.79,1.13-2.26,3.1-3.85,5.56-4.44.67.06,1.46-.08,2.12,0Z"/><path class="cls-1" d="M2,40.56c.15-.56,1.33-1.95,1.87-1.95h15.54s0,40.89,0,40.89l-.24.24H4.2c-.88,0-2.05-1.25-2.2-2.11v-37.07Z"/></g></svg>