<?xml version="1.0" encoding="UTF-8"?><svg id="Layer_2" xmlns="http://www.w3.org/2000/svg" viewBox="0 0 57.15 58.72"><defs><style>.cls-1{fill:#fff;}</style></defs><g id="Layer_6"><path class="cls-1" d="M55.17.12c3.05.97,2.1,3.67.32,5.74-.92,1.11-1.77,2.6-2.75,3.78-2.14,3.24-5.18,7.15-7.56,10.76-2.45,3.24-4.17,6.24-6.79,9.5s-.73,19.89-2.15,23.29c-.72,1.71-7.58,3.86-10.12,4.67s-4.42,1.75-5.36-.79c-.54-1.47.7-25.31-.9-25.55-1.09-1.83-2.85-3.93-4.03-5.82-3.4-4.55-6.77-9.7-9.98-13.91-1.66-2.47-3.38-4.95-5.03-7.08C-.26,3.41-.36,1.45,1.04.47c.48-1.01,53.19-.02,54.13-.35Z"/></g></svg>