<?xml version="1.0" encoding="UTF-8"?><svg id="Layer_2" xmlns="http://www.w3.org/2000/svg" viewBox="0 0 71.15 58.72"><defs><style>.cls-1{fill:#fff;}</style></defs><g id="Layer_1-2"><path class="cls-1" d="M22.26,35.5c1.27-1.79,2.72-3.58,4.17-5.26,9.39-10.87,21.66-21.75,34.85-27.73C62.65,1.89,67.02-.03,68.29,0c2.47.06,3.84,3.36,2.05,5.13-15.83,12.95-28.84,28.05-39.41,45.52-1.21,1.99-2.33,4.45-3.63,6.31-1.44,2.06-3.76,2.32-5.69.74L.89,37.77c-1.3-1.52-1.14-3.63.22-5.04,2.34-2.05,4.46-5.63,6.81-7.52,1.55-1.25,3.36-1.12,4.9.08,2.88,3.1,5.56,6.44,8.49,9.5.16.16.76.86.95.73Z"/></g></svg>