<?xml version="1.0" encoding="UTF-8"?><svg id="Layer_2" xmlns="http://www.w3.org/2000/svg" viewBox="0 0 311.67 248.08"><defs><style>.cls-1{fill:#fff;}</style></defs><g id="forum"><path class="cls-1" d="M186.4.08c27.43,2.77,25.42,30.94,23.75,47.1-1.38,13.39-5.13,26.75-8.52,39.86h67.92c5.92,0,13.37,2.08,18.29,4.82,15.08,8.39,17.86,23.57,8.21,35.76,21.41,9.44,20.19,33.6.06,43.73,11.38,12.83,4.67,30.09-12.19,37.25,12,16.04-1.14,37.17-24.73,38.84-28.14,1.99-59.83-1.49-88.34.03-15.67-.94-31.27-2.13-46.69-4.52-13.79-2.14-27.24-5.35-40.64-8.59l.04-132.5c15.58-9.91,31.32-19.98,43.4-32.73,15.65-16.51,19.33-37.89,30.7-55.85,4.25-6.7,11.6-11.44,20.82-13.2,2.52.18,5.47-.25,7.92,0Z"/><path class="cls-1" d="M0,114.59c.54-1.67,4.96-5.8,7.01-5.8h58.18v121.51l-.91.72H8.22c-3.31,0-7.67-3.72-8.22-6.28v-110.16Z"/></g></svg>