<?xml version="1.0" encoding="UTF-8"?><svg id="Layer_2" xmlns="http://www.w3.org/2000/svg" viewBox="0 0 125.22 84.82"><defs><style>.cls-1{fill:#fff;}</style></defs><g id="fish"><path id="main_body" class="cls-1" d="M125.22,52.86c-.02-1.14-.06-2.24-.12-3.3-.25-12.41-3.85-32.27-11.13-45.68-2.37-4.37-7.89-5.23-11.21-1.64,0,0-9.24,15.04-18.75,21.78-.03.02-.05.04-.08.06-1.94,1.33-3.61,2.74-4.96,4.03-2.51,2.4-2.47,6.43-.01,8.89,1.37,1.37,3.25,1.97,5.06,1.79,0,0,0,.01.01.02.09,0,.19-.02.29-.04.02,0,.04,0,.06,0,4.99-2.22,17.5-7.23,21.27-3.63.23.26.44.54.62.86.04.07.08.14.11.22,2.39,5.94-3.62,10.23-3.62,10.23-4.87,4.67,5.6,10.15,3.69,12.53-1.91,2.38-7.7,8.86-24.56-7.75,0,0,0,0,0,0-5.5-5.51-13.6-13.62-23.1-23.09-4.44-4.43-10.03-7.74-16.2-8.88-7.92-1.47-14.34.5-19.06,3.16-.24.1-.46.24-.67.4-1.52.91-2.86,1.89-3.99,2.82l-11.78,8.14c-9.4,6.5-9.47,20.37-.13,26.96l12.97,9.15c.52.39,1.06.77,1.63,1.15,17.12,11.38,31.98-2.28,38.52-8.82,1.63-1.63,16.03-20.45,24.29-23.45,2.17-.79-4.73-11.29-4.73-11.29-9.2,4.99-25.89,23.65-28.34,26.01-12.71,12.22-19.81,6.21-22.72,4.68-3.86-2.82-7.59-10.68-3.53-19.19,2.45-3.8,5.38-5.53,9.79-6.25,5.25-.62,10.28.42,14.02,4.16l20.68,20.68s3.39,4.1,8.4,8.46c1.97,1.71,4.19,3.46,6.56,5.02,5.06,3.66,11.31,7.84,17.95,12.19,4.56,3.2,10.92,1.38,13.09-3.75,3.86-8.55,8.56-17.67,9.17-21.43,0,0,0,0,0,0,.37-1.69.55-3.43.51-5.19Z"/></g></svg>