<?xml version="1.0" encoding="UTF-8"?><svg id="Layer_2" xmlns="http://www.w3.org/2000/svg" viewBox="0 0 51.71 45.68"><defs><style>.cls-1{fill:#6993cd;}.cls-2{fill:#fff;}</style></defs><g id="background"><path class="cls-1" d="M51.71,40.51c-.45,2.77-2.61,4.85-5.4,5.15-13.92-.09-27.87.2-41.76-.15-2.43-.62-4.27-2.65-4.53-5.17l-.02-38.06C.11.97.97.15,2.27,0h41.31c.83-.12,2.27,1.1,2.27,1.87v3.99h3.89c.8,0,1.75,1.09,1.97,1.82v32.82ZM43.53,2.33H2.33v37.72c0,1.71,1.92,3.32,3.59,3.28h39.69c1.74.12,3.78-1.49,3.78-3.28V8.19h-3.53v30.04c0,.44,1.49.25,1.69,1.23.44,2.15-2.54,1.67-3.49.26-.12-.17-.52-1.04-.52-1.2V2.33Z"/><path class="cls-2" d="M43.53,2.33v36.21c0,.16.4,1.02.52,1.2.95,1.4,3.93,1.89,3.49-.26-.2-.98-1.69-.8-1.69-1.23V8.19h3.53v31.86c0,1.79-2.05,3.4-3.78,3.29H5.91c-1.67.03-3.59-1.58-3.59-3.29V2.33h41.2ZM38.55,7.42c-.11-.11-.33-.2-.47-.29l-30.05-.05c-1.54.39-1.18,2.36.4,2.33h28.99c1.08.11,1.88-1.18,1.12-1.99ZM7.85,12.96c-.64.25-.83.8-.88,1.44.22,3.61-.28,7.54,0,11.12.09,1.12.44,1.48,1.56,1.57,3.63-.24,7.64.31,11.22,0,1.09-.09,1.39-.5,1.47-1.56.26-3.62-.21-7.56,0-11.22-.02-.59-.3-1.28-.96-1.36l-12.41.03ZM25.43,12.96c-1.25.64-.79,2.25.58,2.3,3.68-.27,7.89.37,11.51,0,1.34-.14,1.8-1.42.72-2.23l-12.81-.07ZM25.94,18.72c-1.63.1-1.63,2.24-.02,2.38,3.71-.25,7.96.38,11.6.01.91-.09,1.44-.61,1.26-1.56-.12-.62-.83-.81-1.36-.86-3.62-.35-7.8.23-11.48.03ZM25.83,24.58c-1.68.26-1.39,2.44.28,2.4,3.63-.25,7.73.34,11.31,0,1.9-.18,1.82-2.2.19-2.41h-11.78ZM8.16,30.44c-1.38.16-1.51,1.89-.22,2.29h12.32c1.19-.15,1.36-2.14-.41-2.32-3.67-.37-7.95.25-11.69.03ZM25.83,30.44c-1.2.14-1.55,1.56-.54,2.2l12.64.1c1.19-.16,1.33-2.15-.41-2.33-3.66-.37-7.96.25-11.69.02ZM8.16,36.29c-1.38.16-1.51,1.89-.22,2.29h12.22c1.38-.16,1.4-2.15-.2-2.32l-11.79.03ZM38.55,38.25c.73-.78.01-2.05-1.03-1.98-3.69.27-7.89-.36-11.51,0-1.75.17-1.66,2.16-.31,2.32h12.12c.22-.02.58-.19.72-.34Z"/><path class="cls-1" d="M7.85,12.96l12.41-.03c.66.09.94.78.96,1.36-.21,3.66.26,7.59,0,11.22-.08,1.06-.38,1.47-1.47,1.56-3.58.31-7.59-.24-11.22,0-1.12-.08-1.48-.44-1.56-1.57-.28-3.58.22-7.5,0-11.12.06-.64.24-1.19.88-1.44ZM18.79,15.26h-9.39v9.49h9.39v-9.49Z"/><path class="cls-1" d="M38.55,7.42c.76.81-.04,2.1-1.12,1.99H8.43c-1.58.03-1.94-1.94-.4-2.33l30.05.05c.13.1.36.18.47.29Z"/><path class="cls-1" d="M25.94,18.72c3.68.2,7.86-.37,11.48-.03.53.05,1.24.25,1.36.86.18.95-.34,1.47-1.26,1.56-3.64.37-7.89-.26-11.6-.01-1.61-.15-1.61-2.29.02-2.38Z"/><path class="cls-1" d="M25.83,24.58h11.78c1.63.19,1.71,2.21-.19,2.4-3.58.34-7.67-.25-11.31,0-1.66.05-1.96-2.14-.28-2.4Z"/><path class="cls-1" d="M25.43,12.96l12.81.07c1.09.81.62,2.09-.72,2.23-3.62.37-7.83-.27-11.51,0-1.37-.04-1.83-1.66-.58-2.3Z"/><path class="cls-1" d="M25.83,30.44c3.73.23,8.02-.4,11.69-.02,1.74.18,1.6,2.16.41,2.33l-12.64-.1c-1.01-.65-.66-2.06.54-2.2Z"/><path class="cls-1" d="M8.16,36.29l11.79-.03c1.6.17,1.58,2.16.2,2.33H7.94c-1.28-.41-1.15-2.14.22-2.3Z"/><path class="cls-1" d="M38.55,38.25c-.14.15-.5.33-.72.34h-12.12c-1.35-.16-1.44-2.15.31-2.32,3.62-.36,7.82.27,11.51,0,1.04-.07,1.75,1.21,1.03,1.98Z"/><path class="cls-1" d="M8.16,30.44c3.73.22,8.02-.39,11.69-.03,1.77.18,1.6,2.16.41,2.33H7.94c-1.28-.41-1.15-2.14.22-2.3Z"/><rect class="cls-2" x="9.4" y="15.26" width="9.39" height="9.49"/></g></svg>