<?xml version="1.0" encoding="UTF-8"?><svg id="Layer_2" xmlns="http://www.w3.org/2000/svg" viewBox="0 0 71 58.92"><defs><style>.cls-1{fill:#fff;}</style></defs><g id="izbornik_za_profil"><path class="cls-1" d="M70.86,35.72c0-.2-.02-.44-.08-.76-.5-2.36-4.68-10.12-6.2-12.02l6-10.38c1.48-4.34-4.08-7.22-6.8-3.58l-5.34,9.38c-2.98-1.8-6.14-3.31-9.47-4.36l1.74-10.18c-.09-4.34-6.58-5.75-7.81-.13-.63,2.87-.93,5.83-1.5,8.71-3.48-.42-7.03-.48-10.51.01-.95-2.93-.94-6.42-1.76-9.37-1.23-4.46-7.11-3.84-7.68.6l1.77,10.36c-3.31,1.03-6.48,2.5-9.41,4.34l-5.41-9.38C5.71,5.34.29,7.97,1.51,12.34l5.95,10.61c-.01.6-5.32,7.72-6.77,11.12-1.45,2.91-.64,4.99,2.42,8.83,16.43,20.61,45.68,21.45,63.31,1.83,3.31-3.68,5.09-6,4.43-9.01ZM47.8,46.7c-6.96,8.59-20.57,7.42-26.02-2.16-5.54-9.76.78-22.49,11.97-23.57,14.12-1.36,22.99,14.7,14.05,25.73Z"/><path class="cls-1" d="M34.04,26.37c-7.83.88-11.62,10.69-6.68,16.83,5.29,6.57,16.07,4.46,18.21-3.69,1.96-7.43-3.96-13.99-11.53-13.14Z"/></g></svg>