<?xml version="1.0" encoding="UTF-8"?><svg id="Layer_2" xmlns="http://www.w3.org/2000/svg" viewBox="0 0 60.74 60.76"><defs><style>.cls-1{fill:#fff;}</style></defs><g id="Layer_6"><path class="cls-1" d="M23.27.05c10.68-.66,20.68,5.75,24.55,15.67,2.75,7.04,2.16,15.33-1.84,21.75,2.99,1.94,6.07,3.77,8.92,5.93.85.65,1.88,1.41,2.66,2.13,9.19,8.48-3.54,21.24-12.03,12.03-3.11-3.37-5.5-7.79-8.06-11.57-12.85,7.89-30.04,2.04-35.64-11.85C-4.52,18.37,6.38,1.08,23.27.05ZM13.77,13.78c-8.75,8.75-4.12,23.87,7.99,26.24s22.12-9.84,17.3-21.33c-4.23-10.07-17.55-12.64-25.29-4.91Z"/></g></svg>