<?xml version="1.0" encoding="UTF-8"?><svg id="Layer_2" xmlns="http://www.w3.org/2000/svg" viewBox="0 0 64.97 44.53"><defs><style>.cls-1{fill:#fff;}</style></defs><g id="background"><path class="cls-1" d="M29.46,1.73c3.04-1.3,7.01-3.17,9.48.08,2.45,3.22-.88,5.92.11,9.38,4.48,1.36,8.53,3.67,12.11,6.67.1.01,1.17-.9,1.35-1.07,2.04-1.81,4.78-5.01,6.91-6.43,2.62-1.75,5.96.42,5.52,3.49-.09.63-.49,1.45-.65,2.1-1.26,5.22-1.61,9.5-.55,14.82.31,1.55,1.39,4.12,1.2,5.54-.41,2.98-4.19,3.93-6.2,1.78l-7.31-6.89c-.5-.34-1.35.71-1.83,1.08-4.79,3.6-10.25,5.97-16.22,6.83-.61,1.32-.53,2.5-1.52,3.7-1.57,1.89-4.08,2.24-6.15.93-1.7-1.08-3.87-4.07-5.42-4.88-1.24-.65-4.19-1.13-5.79-1.74-4.36-1.66-8.93-4.62-12.07-8.08-2.62-2.89-3.45-4.71-.79-8.04,4.01-5.03,10.53-8.47,16.62-10.26,2.55-4.19,6.75-7.12,11.2-9.01ZM13.47,24.52c3.11.51,3.76-4,.95-4.57-3.11-.63-3.88,4.09-.95,4.57Z"/></g></svg>