<?xml version="1.0" encoding="UTF-8"?><svg id="Layer_2" xmlns="http://www.w3.org/2000/svg" viewBox="0 0 56.87 49.76"><defs><style>.cls-1{fill:#6993cd;}.cls-2{fill:#fff;}</style></defs><g id="background"><path class="cls-1" d="M56.85,9.12c.06.48-.04,1.06,0,1.55-1.4,8.96-1.76,18.28-3.12,27.24-.45,2.95-1.7,4.78-4.74,5.41-.02,1.06.09,1.94-.33,2.95-.78,1.89-2.74,3.2-4.74,3.48H4.74c-2.71-.36-4.52-2.33-4.72-5.05.12-9.93-.21-19.91.17-29.82.45-2.29,2.41-4.25,4.77-4.44.38-.03,2.39.07,2.49,0,.76-3.3-.09-7.38,3.08-9.52C11.81.07,12.87-.06,14.4.02l38.04,4.36c2.12.47,4.15,2.57,4.41,4.75ZM48.97,40.43c1.72-.34,1.79-1.87,1.98-3.29,1.25-9.19,2.03-18.51,3.09-27.71-.44-2.05-1.8-2.26-3.59-2.51-12.22-1.72-24.59-2.56-36.82-4.24-1.71.15-2.54,1.11-2.82,2.74s-.29,3.4-.57,5.04h33.57c1.97,0,5.16,2.84,5.16,4.83v25.14ZM2.8,35.77l9.82-7c3.06-1.52,5.29-.62,7.72,1.39,2.09,1.72,4.01,3.72,6.1,5.44,1.72,1.42,2.78,1.95,4.96.85l14.73-8.58.19-.37c-.27-3.59.35-7.67-.02-11.21-.15-1.46-1.09-2.68-2.53-3.02l-38.68-.05c-.99-.03-2.27,1.52-2.27,2.39v20.15ZM46.3,31.1l-.39.11c-4.06,2.26-7.99,4.79-12.07,7.02-2.92,1.6-5.18,2.42-8.21.29-2.63-1.85-5.07-4.67-7.62-6.7-1.27-1.01-2.36-1.43-3.96-.74l-11.25,8.29c.19,1.75-.23,3.94.04,5.64.15.96.98,1.78,1.93,1.96h38.94c1.14-.02,2.61-1.34,2.61-2.49v-13.38Z"/><path class="cls-2" d="M2.8,35.77V15.62c0-.87,1.29-2.42,2.27-2.39l38.68.05c1.45.34,2.38,1.56,2.53,3.02.37,3.53-.25,7.62.02,11.21l-.19.37-14.73,8.58c-2.18,1.1-3.24.57-4.96-.85-2.09-1.72-4.01-3.72-6.1-5.44-2.43-2-4.66-2.91-7.72-1.39l-9.82,7ZM28.08,17.59c-4.12.47-6.4,5.25-4.21,8.82,2.51,4.1,8.8,3.43,10.4-1.08,1.44-4.08-1.93-8.22-6.18-7.74Z"/><path class="cls-2" d="M46.3,31.1v13.38c0,1.15-1.47,2.47-2.61,2.5H4.75c-.95-.19-1.77-1-1.93-1.97-.27-1.7.15-3.89-.04-5.64l11.25-8.29c1.61-.69,2.69-.27,3.96.74,2.55,2.03,4.99,4.85,7.62,6.7,3.03,2.13,5.29,1.3,8.21-.29,4.08-2.23,8.01-4.76,12.07-7.02l.39-.11Z"/><path class="cls-2" d="M48.97,40.43V15.29c0-1.99-3.19-4.83-5.16-4.83H10.24c.28-1.64.29-3.41.57-5.04s1.11-2.59,2.82-2.74c12.23,1.67,24.6,2.52,36.82,4.24,1.79.25,3.15.46,3.59,2.51-1.07,9.2-1.84,18.52-3.09,27.71-.19,1.42-.27,2.95-1.98,3.29Z"/><path class="cls-1" d="M28.08,17.59c4.26-.48,7.62,3.66,6.18,7.74-1.59,4.5-7.88,5.18-10.4,1.08-2.19-3.56.09-8.35,4.21-8.82ZM28.3,20.37c-3.51.51-3.29,5.95.43,6.03,4.3.1,3.95-6.67-.43-6.03Z"/><path class="cls-2" d="M28.3,20.37c4.39-.64,4.74,6.14.43,6.03-3.72-.09-3.94-5.52-.43-6.03Z"/></g></svg>