<?xml version="1.0" encoding="UTF-8"?><svg id="Layer_2" xmlns="http://www.w3.org/2000/svg" viewBox="0 0 69.51 34.95"><defs><style>.cls-1{fill:#fff;}</style></defs><g id="izbornik_za_profil"><path class="cls-1" d="M57.1,16.59c-2.98,1.8-6.14,3.31-9.47,4.36l1.74,10.18c-.09,4.34-6.58,5.75-7.81.13-.63-2.87-.93-5.83-1.5-8.71-3.48.42-7.03.48-10.51-.01-.95,2.93-.94,6.42-1.76,9.37-1.23,4.46-7.11,3.84-7.68-.6l1.77-10.36c-3.31-1.03-6.48-2.5-9.41-4.34l-5.41,9.38c-2.69,3.64-8.12,1.02-6.89-3.36l5.95-10.61c-.01-.62-5.67-5.08-6.07-7.43C-.43,1.67,2.16-.56,4.98.14c1.66.41,3.44,3.22,4.69,4.48,13.9,13.99,36.04,14.1,50.02.16,1.33-1.33,3.26-4.4,5.1-4.71,2.81-.48,5.23,1.8,4.63,4.63-.5,2.36-4.65,5.41-6.17,7.3l6,10.38c1.48,4.34-4.08,7.22-6.8,3.58l-5.34-9.38Z"/></g></svg>