<?xml version="1.0" encoding="UTF-8"?><svg id="Layer_2" xmlns="http://www.w3.org/2000/svg" viewBox="0 0 57.88 47.22"><defs><style>.cls-1{fill:#fff;}</style></defs><g id="footer"><path class="cls-1" d="M26.39,21.62c5.38-.48,10.4.35,13.92,4.7,3.66,4.52,2.99,10.76,4.18,16.17-.13,1.26-1.16,1.95-2.19,2.49-5.78,2.99-21.67,3.07-27.26-.33-.9-.55-1.57-1.14-1.62-2.27.82-3.74.77-8.04,1.85-11.67,1.46-4.94,5.98-8.63,11.13-9.09Z"/><path class="cls-1" d="M28.41.01c8-.4,13.29,8.24,9.27,15.21s-13.74,6.63-17.53-.08C16.47,8.6,20.93.39,28.41.01Z"/><path class="cls-1" d="M40.95,22.98c6.68-3.49,14.44-.13,16.24,7.2.26,1.07.86,3.85.64,4.81-.19.81-1.36,1.69-2.06,2.11-2.64,1.6-5.99,1.93-9.02,1.99-.78-3.59-.68-7.45-2.16-10.86-.87-2.01-2.18-3.66-3.65-5.26Z"/><path class="cls-1" d="M16.94,22.98c.08.33-.25.27-.45.49-1.29,1.43-2.43,2.99-3.2,4.77-1.48,3.41-1.38,7.27-2.16,10.86-3.02-.06-6.48-.41-9.1-2.04-1.28-.8-2.13-1.53-2.03-3.15.11-1.79.88-5.03,1.75-6.59,2.99-5.43,9.75-7.26,15.19-4.34Z"/><path class="cls-1" d="M10.6,5.45c1.85-.18,3.63.28,5.15,1.35.16.25-.32,2.53-.32,3.09s.08,1.46.15,2.01c.24,1.83.91,3.61,1.84,5.2-4.48,6.2-14.07,2.57-13.35-5.18.31-3.3,3.28-6.15,6.54-6.47Z"/><path class="cls-1" d="M45.6,5.45c5.77-.62,9.97,5.17,7.59,10.5-2.28,5.11-9.6,5.82-12.7,1.16,1.87-3.1,2.31-6.69,1.61-10.21.92-.78,2.3-1.31,3.5-1.44Z"/></g></svg>